<svg xmlns="http://www.w3.org/2000/svg" xmlns:xlink="http://www.w3.org/1999/xlink" width="184" zoomAndPan="magnify" viewBox="0 0 138 30.000001" height="40" preserveAspectRatio="xMidYMid meet" version="1.0"><defs><g/><clipPath id="8446286416"><path d="M 2.226562 1.816406 L 27.628906 1.816406 L 27.628906 27.21875 L 2.226562 27.21875 Z M 2.226562 1.816406 " clip-rule="nonzero"/></clipPath><clipPath id="e988a1ccee"><path d="M 2.226562 1.816406 L 27.628906 1.816406 L 27.628906 13 L 2.226562 13 Z M 2.226562 1.816406 " clip-rule="nonzero"/></clipPath><clipPath id="2787607b66"><path d="M 7 7 L 13 7 L 13 27.21875 L 7 27.21875 Z M 7 7 " clip-rule="nonzero"/></clipPath><clipPath id="68cb38aad8"><path d="M 8 7 L 27.628906 7 L 27.628906 13 L 8 13 Z M 8 7 " clip-rule="nonzero"/></clipPath><clipPath id="9958f96353"><rect x="0" width="108" y="0" height="18"/></clipPath></defs><g clip-path="url(#8446286416)"><path fill="#644738" d="M 2.226562 1.8125 L 7.453125 27.21875 L 12.726562 12.316406 L 27.628906 7.042969 Z M 2.226562 1.8125 " fill-opacity="1" fill-rule="nonzero"/></g><g clip-path="url(#e988a1ccee)"><path fill="#3c2a21" d="M 27.628906 7.042969 L 2.226562 1.8125 L 12.726562 12.316406 Z M 27.628906 7.042969 " fill-opacity="1" fill-rule="nonzero"/></g><g clip-path="url(#2787607b66)"><path fill="#3c2a21" d="M 7.453125 27.21875 L 8.28125 7.867188 L 12.726562 12.316406 Z M 7.453125 27.21875 " fill-opacity="1" fill-rule="nonzero"/></g><g clip-path="url(#68cb38aad8)"><path fill="#1a120b" d="M 27.628906 7.042969 L 8.28125 7.867188 L 12.726562 12.316406 Z M 27.628906 7.042969 " fill-opacity="1" fill-rule="nonzero"/></g><g transform="matrix(1, 0, 0, 1, 27, 5)"><g clip-path="url(#9958f96353)"><g fill="#1e201f" fill-opacity="1"><g transform="translate(0.62387, 12.134536)"><g><path d="M 0.796875 -11.0625 L 4.765625 -11.0625 C 5.828125 -11.0625 6.691406 -10.773438 7.359375 -10.203125 C 8.023438 -9.640625 8.359375 -8.832031 8.359375 -7.78125 C 8.359375 -6.96875 8.15625 -6.285156 7.75 -5.734375 C 7.34375 -5.179688 6.789062 -4.796875 6.09375 -4.578125 L 9.90625 0 L 6.703125 0 L 3.328125 -4.375 L 3.328125 0 L 0.796875 0 Z M 3.328125 -6.15625 L 3.625 -6.15625 C 3.851562 -6.15625 4.046875 -6.160156 4.203125 -6.171875 C 4.367188 -6.179688 4.550781 -6.210938 4.75 -6.265625 C 4.957031 -6.316406 5.125 -6.390625 5.25 -6.484375 C 5.375 -6.585938 5.484375 -6.734375 5.578125 -6.921875 C 5.671875 -7.109375 5.71875 -7.332031 5.71875 -7.59375 C 5.71875 -7.863281 5.671875 -8.09375 5.578125 -8.28125 C 5.484375 -8.46875 5.375 -8.609375 5.25 -8.703125 C 5.125 -8.804688 4.957031 -8.882812 4.75 -8.9375 C 4.550781 -8.988281 4.367188 -9.019531 4.203125 -9.03125 C 4.046875 -9.039062 3.851562 -9.046875 3.625 -9.046875 L 3.328125 -9.046875 Z M 3.328125 -6.15625 "/></g></g></g><g fill="#1e201f" fill-opacity="1"><g transform="translate(10.134881, 12.134536)"><g><path d="M 3.046875 -6.875 L 3.046875 -3.609375 C 3.046875 -2.929688 3.144531 -2.445312 3.34375 -2.15625 C 3.550781 -1.875 3.898438 -1.734375 4.390625 -1.734375 C 4.890625 -1.734375 5.238281 -1.875 5.4375 -2.15625 C 5.644531 -2.445312 5.75 -2.929688 5.75 -3.609375 L 5.75 -6.875 L 8.125 -6.875 L 8.125 -3.03125 C 8.125 -1.882812 7.828125 -1.054688 7.234375 -0.546875 C 6.640625 -0.046875 5.691406 0.203125 4.390625 0.203125 C 3.097656 0.203125 2.15625 -0.046875 1.5625 -0.546875 C 0.96875 -1.054688 0.671875 -1.882812 0.671875 -3.03125 L 0.671875 -6.875 Z M 3.046875 -6.875 "/></g></g></g><g fill="#1e201f" fill-opacity="1"><g transform="translate(18.842138, 12.134536)"><g><path d="M 1.265625 -0.84375 C 0.628906 -1.550781 0.3125 -2.410156 0.3125 -3.421875 C 0.3125 -4.441406 0.628906 -5.304688 1.265625 -6.015625 C 1.910156 -6.722656 2.734375 -7.078125 3.734375 -7.078125 C 4.640625 -7.078125 5.390625 -6.789062 5.984375 -6.21875 L 5.984375 -6.875 L 8.359375 -6.875 L 8.359375 0 L 6 0 L 6 -0.78125 L 5.984375 -0.78125 C 5.390625 -0.125 4.640625 0.203125 3.734375 0.203125 C 2.734375 0.203125 1.910156 -0.144531 1.265625 -0.84375 Z M 3.28125 -4.59375 C 2.976562 -4.289062 2.828125 -3.898438 2.828125 -3.421875 C 2.828125 -2.953125 2.972656 -2.566406 3.265625 -2.265625 C 3.566406 -1.972656 3.957031 -1.828125 4.4375 -1.828125 C 4.90625 -1.828125 5.285156 -1.976562 5.578125 -2.28125 C 5.878906 -2.582031 6.03125 -2.96875 6.03125 -3.4375 C 6.03125 -3.90625 5.875 -4.289062 5.5625 -4.59375 C 5.257812 -4.894531 4.882812 -5.046875 4.4375 -5.046875 C 3.976562 -5.046875 3.59375 -4.894531 3.28125 -4.59375 Z M 3.28125 -4.59375 "/></g></g></g><g fill="#1e201f" fill-opacity="1"><g transform="translate(27.91109, 12.134536)"><g><path d="M 0.796875 0 L 0.796875 -6.875 L 3.171875 -6.875 L 3.171875 -6.15625 L 3.203125 -6.15625 C 3.816406 -6.769531 4.472656 -7.078125 5.171875 -7.078125 C 5.515625 -7.078125 5.851562 -7.03125 6.1875 -6.9375 C 6.519531 -6.851562 6.835938 -6.71875 7.140625 -6.53125 C 7.453125 -6.34375 7.703125 -6.078125 7.890625 -5.734375 C 8.085938 -5.390625 8.1875 -4.988281 8.1875 -4.53125 L 8.1875 0 L 5.8125 0 L 5.8125 -3.890625 C 5.8125 -4.242188 5.695312 -4.554688 5.46875 -4.828125 C 5.25 -5.097656 4.953125 -5.234375 4.578125 -5.234375 C 4.222656 -5.234375 3.898438 -5.09375 3.609375 -4.8125 C 3.316406 -4.53125 3.171875 -4.222656 3.171875 -3.890625 L 3.171875 0 Z M 0.796875 0 "/></g></g></g><g fill="#1e201f" fill-opacity="1"><g transform="translate(36.685332, 12.134536)"><g><path d="M 0.5 1.6875 L 2.4375 0.734375 C 2.789062 1.328125 3.410156 1.625 4.296875 1.625 C 4.710938 1.625 5.097656 1.488281 5.453125 1.21875 C 5.804688 0.957031 5.984375 0.554688 5.984375 0.015625 L 5.984375 -0.5 C 5.554688 -0.03125 4.804688 0.203125 3.734375 0.203125 C 2.734375 0.203125 1.910156 -0.144531 1.265625 -0.84375 C 0.628906 -1.550781 0.3125 -2.410156 0.3125 -3.421875 C 0.3125 -4.441406 0.628906 -5.304688 1.265625 -6.015625 C 1.910156 -6.722656 2.734375 -7.078125 3.734375 -7.078125 C 4.609375 -7.078125 5.34375 -6.804688 5.9375 -6.265625 L 5.984375 -6.265625 L 5.984375 -6.875 L 8.359375 -6.875 L 8.359375 0.1875 C 8.359375 1.300781 7.984375 2.160156 7.234375 2.765625 C 6.492188 3.378906 5.515625 3.6875 4.296875 3.6875 C 2.335938 3.6875 1.070312 3.019531 0.5 1.6875 Z M 3.28125 -4.59375 C 2.976562 -4.289062 2.828125 -3.898438 2.828125 -3.421875 C 2.828125 -2.953125 2.972656 -2.566406 3.265625 -2.265625 C 3.566406 -1.972656 3.957031 -1.828125 4.4375 -1.828125 C 4.90625 -1.828125 5.285156 -1.976562 5.578125 -2.28125 C 5.878906 -2.582031 6.03125 -2.96875 6.03125 -3.4375 C 6.03125 -3.90625 5.875 -4.289062 5.5625 -4.59375 C 5.257812 -4.894531 4.882812 -5.046875 4.4375 -5.046875 C 3.976562 -5.046875 3.59375 -4.894531 3.28125 -4.59375 Z M 3.28125 -4.59375 "/></g></g></g><g fill="#1e201f" fill-opacity="1"><g transform="translate(45.754284, 12.134536)"><g><path d="M 0.796875 -11.0625 L 4.234375 -11.0625 C 5.273438 -11.0625 6.101562 -10.835938 6.71875 -10.390625 C 7.332031 -9.953125 7.640625 -9.238281 7.640625 -8.25 C 7.640625 -7.132812 7.179688 -6.34375 6.265625 -5.875 C 7.835938 -5.59375 8.625 -4.660156 8.625 -3.078125 C 8.625 -2.148438 8.300781 -1.40625 7.65625 -0.84375 C 7.007812 -0.28125 6.125 0 5 0 L 0.796875 0 Z M 3.328125 -6.734375 L 3.53125 -6.734375 C 4.09375 -6.734375 4.507812 -6.828125 4.78125 -7.015625 C 5.0625 -7.210938 5.203125 -7.535156 5.203125 -7.984375 C 5.203125 -8.734375 4.644531 -9.109375 3.53125 -9.109375 L 3.328125 -9.109375 Z M 3.328125 -1.9375 L 4.109375 -1.9375 C 5.347656 -1.9375 5.96875 -2.347656 5.96875 -3.171875 C 5.96875 -3.671875 5.8125 -4.023438 5.5 -4.234375 C 5.195312 -4.453125 4.734375 -4.5625 4.109375 -4.5625 L 3.328125 -4.5625 Z M 3.328125 -1.9375 "/></g></g></g><g fill="#1e201f" fill-opacity="1"><g transform="translate(54.595499, 12.134536)"><g><path d="M 7.765625 -3.109375 L 2.78125 -3.109375 C 2.78125 -2.628906 2.9375 -2.269531 3.25 -2.03125 C 3.5625 -1.800781 3.898438 -1.6875 4.265625 -1.6875 C 4.648438 -1.6875 4.953125 -1.738281 5.171875 -1.84375 C 5.398438 -1.945312 5.65625 -2.148438 5.9375 -2.453125 L 7.65625 -1.59375 C 6.9375 -0.394531 5.75 0.203125 4.09375 0.203125 C 3.050781 0.203125 2.160156 -0.148438 1.421875 -0.859375 C 0.679688 -1.578125 0.3125 -2.4375 0.3125 -3.4375 C 0.3125 -4.4375 0.679688 -5.289062 1.421875 -6 C 2.160156 -6.71875 3.050781 -7.078125 4.09375 -7.078125 C 5.175781 -7.078125 6.0625 -6.757812 6.75 -6.125 C 7.4375 -5.5 7.78125 -4.601562 7.78125 -3.4375 C 7.78125 -3.269531 7.773438 -3.160156 7.765625 -3.109375 Z M 2.84375 -4.421875 L 5.453125 -4.421875 C 5.398438 -4.773438 5.257812 -5.046875 5.03125 -5.234375 C 4.800781 -5.429688 4.507812 -5.53125 4.15625 -5.53125 C 3.757812 -5.53125 3.445312 -5.425781 3.21875 -5.21875 C 2.988281 -5.019531 2.863281 -4.753906 2.84375 -4.421875 Z M 2.84375 -4.421875 "/></g></g></g><g fill="#1e201f" fill-opacity="1"><g transform="translate(62.592779, 12.134536)"><g><path d="M 0.796875 0 L 0.796875 -6.875 L 3.171875 -6.875 L 3.171875 -5.890625 L 3.203125 -5.890625 C 3.222656 -5.921875 3.253906 -5.960938 3.296875 -6.015625 C 3.335938 -6.066406 3.421875 -6.160156 3.546875 -6.296875 C 3.679688 -6.429688 3.820312 -6.550781 3.96875 -6.65625 C 4.125 -6.769531 4.320312 -6.867188 4.5625 -6.953125 C 4.8125 -7.035156 5.0625 -7.078125 5.3125 -7.078125 C 5.570312 -7.078125 5.828125 -7.039062 6.078125 -6.96875 C 6.328125 -6.894531 6.507812 -6.820312 6.625 -6.75 L 6.8125 -6.65625 L 5.8125 -4.640625 C 5.519531 -4.890625 5.109375 -5.015625 4.578125 -5.015625 C 4.296875 -5.015625 4.050781 -4.953125 3.84375 -4.828125 C 3.644531 -4.703125 3.5 -4.550781 3.40625 -4.375 C 3.320312 -4.195312 3.257812 -4.046875 3.21875 -3.921875 C 3.1875 -3.796875 3.171875 -3.695312 3.171875 -3.625 L 3.171875 0 Z M 0.796875 0 "/></g></g></g><g fill="#1e201f" fill-opacity="1"><g transform="translate(69.183483, 12.134536)"><g><path d="M 3.796875 -7.078125 C 4.191406 -7.078125 4.578125 -7.03125 4.953125 -6.9375 C 5.335938 -6.851562 5.625 -6.765625 5.8125 -6.671875 L 6.09375 -6.546875 L 5.328125 -4.984375 C 4.785156 -5.273438 4.273438 -5.421875 3.796875 -5.421875 C 3.523438 -5.421875 3.332031 -5.390625 3.21875 -5.328125 C 3.113281 -5.265625 3.0625 -5.15625 3.0625 -5 C 3.0625 -4.96875 3.0625 -4.929688 3.0625 -4.890625 C 3.070312 -4.859375 3.085938 -4.828125 3.109375 -4.796875 C 3.140625 -4.765625 3.164062 -4.734375 3.1875 -4.703125 C 3.21875 -4.679688 3.257812 -4.65625 3.3125 -4.625 C 3.363281 -4.601562 3.40625 -4.585938 3.4375 -4.578125 C 3.46875 -4.566406 3.519531 -4.546875 3.59375 -4.515625 C 3.664062 -4.492188 3.71875 -4.472656 3.75 -4.453125 C 3.789062 -4.441406 3.851562 -4.421875 3.9375 -4.390625 C 4.019531 -4.367188 4.082031 -4.351562 4.125 -4.34375 C 4.40625 -4.257812 4.644531 -4.164062 4.84375 -4.0625 C 5.050781 -3.96875 5.269531 -3.835938 5.5 -3.671875 C 5.726562 -3.503906 5.90625 -3.289062 6.03125 -3.03125 C 6.15625 -2.769531 6.21875 -2.472656 6.21875 -2.140625 C 6.21875 -0.578125 5.132812 0.203125 2.96875 0.203125 C 2.46875 0.203125 1.992188 0.128906 1.546875 -0.015625 C 1.109375 -0.171875 0.796875 -0.328125 0.609375 -0.484375 L 0.3125 -0.71875 L 1.28125 -2.34375 C 1.34375 -2.28125 1.429688 -2.207031 1.546875 -2.125 C 1.671875 -2.039062 1.882812 -1.925781 2.1875 -1.78125 C 2.488281 -1.632812 2.75 -1.5625 2.96875 -1.5625 C 3.46875 -1.5625 3.71875 -1.722656 3.71875 -2.046875 C 3.71875 -2.203125 3.65625 -2.320312 3.53125 -2.40625 C 3.40625 -2.488281 3.191406 -2.582031 2.890625 -2.6875 C 2.585938 -2.800781 2.351562 -2.898438 2.1875 -2.984375 C 1.757812 -3.210938 1.421875 -3.46875 1.171875 -3.75 C 0.921875 -4.03125 0.796875 -4.398438 0.796875 -4.859375 C 0.796875 -5.554688 1.0625 -6.097656 1.59375 -6.484375 C 2.132812 -6.878906 2.867188 -7.078125 3.796875 -7.078125 Z M 3.796875 -7.078125 "/></g></g></g><g fill="#1e201f" fill-opacity="1"><g transform="translate(75.693812, 12.134536)"><g><path d="M 1.265625 -0.84375 C 0.628906 -1.550781 0.3125 -2.410156 0.3125 -3.421875 C 0.3125 -4.441406 0.628906 -5.304688 1.265625 -6.015625 C 1.910156 -6.722656 2.734375 -7.078125 3.734375 -7.078125 C 4.640625 -7.078125 5.390625 -6.789062 5.984375 -6.21875 L 5.984375 -6.875 L 8.359375 -6.875 L 8.359375 0 L 6 0 L 6 -0.78125 L 5.984375 -0.78125 C 5.390625 -0.125 4.640625 0.203125 3.734375 0.203125 C 2.734375 0.203125 1.910156 -0.144531 1.265625 -0.84375 Z M 3.28125 -4.59375 C 2.976562 -4.289062 2.828125 -3.898438 2.828125 -3.421875 C 2.828125 -2.953125 2.972656 -2.566406 3.265625 -2.265625 C 3.566406 -1.972656 3.957031 -1.828125 4.4375 -1.828125 C 4.90625 -1.828125 5.285156 -1.976562 5.578125 -2.28125 C 5.878906 -2.582031 6.03125 -2.96875 6.03125 -3.4375 C 6.03125 -3.90625 5.875 -4.289062 5.5625 -4.59375 C 5.257812 -4.894531 4.882812 -5.046875 4.4375 -5.046875 C 3.976562 -5.046875 3.59375 -4.894531 3.28125 -4.59375 Z M 3.28125 -4.59375 "/></g></g></g><g fill="#1e201f" fill-opacity="1"><g transform="translate(84.762764, 12.134536)"><g><path d="M 0.796875 0 L 0.796875 -6.875 L 3.171875 -6.875 L 3.171875 -6.15625 L 3.203125 -6.15625 C 3.816406 -6.769531 4.472656 -7.078125 5.171875 -7.078125 C 5.671875 -7.078125 6.140625 -6.972656 6.578125 -6.765625 C 7.015625 -6.566406 7.347656 -6.25 7.578125 -5.8125 C 8.273438 -6.65625 9.035156 -7.078125 9.859375 -7.078125 C 10.585938 -7.078125 11.210938 -6.867188 11.734375 -6.453125 C 12.265625 -6.046875 12.53125 -5.40625 12.53125 -4.53125 L 12.53125 0 L 10.15625 0 L 10.15625 -3.890625 C 10.15625 -4.253906 10.054688 -4.554688 9.859375 -4.796875 C 9.660156 -5.046875 9.359375 -5.171875 8.953125 -5.171875 C 8.609375 -5.171875 8.34375 -5.066406 8.15625 -4.859375 C 7.976562 -4.648438 7.878906 -4.398438 7.859375 -4.109375 L 7.859375 0 L 5.484375 0 L 5.484375 -3.890625 C 5.484375 -4.253906 5.378906 -4.554688 5.171875 -4.796875 C 4.972656 -5.046875 4.675781 -5.171875 4.28125 -5.171875 C 3.914062 -5.171875 3.640625 -5.054688 3.453125 -4.828125 C 3.265625 -4.597656 3.171875 -4.328125 3.171875 -4.015625 L 3.171875 0 Z M 0.796875 0 "/></g></g></g><g fill="#1e201f" fill-opacity="1"><g transform="translate(97.877278, 12.134536)"><g><path d="M 1.265625 -0.84375 C 0.628906 -1.550781 0.3125 -2.410156 0.3125 -3.421875 C 0.3125 -4.441406 0.628906 -5.304688 1.265625 -6.015625 C 1.910156 -6.722656 2.734375 -7.078125 3.734375 -7.078125 C 4.640625 -7.078125 5.390625 -6.789062 5.984375 -6.21875 L 5.984375 -6.875 L 8.359375 -6.875 L 8.359375 0 L 6 0 L 6 -0.78125 L 5.984375 -0.78125 C 5.390625 -0.125 4.640625 0.203125 3.734375 0.203125 C 2.734375 0.203125 1.910156 -0.144531 1.265625 -0.84375 Z M 3.28125 -4.59375 C 2.976562 -4.289062 2.828125 -3.898438 2.828125 -3.421875 C 2.828125 -2.953125 2.972656 -2.566406 3.265625 -2.265625 C 3.566406 -1.972656 3.957031 -1.828125 4.4375 -1.828125 C 4.90625 -1.828125 5.285156 -1.976562 5.578125 -2.28125 C 5.878906 -2.582031 6.03125 -2.96875 6.03125 -3.4375 C 6.03125 -3.90625 5.875 -4.289062 5.5625 -4.59375 C 5.257812 -4.894531 4.882812 -5.046875 4.4375 -5.046875 C 3.976562 -5.046875 3.59375 -4.894531 3.28125 -4.59375 Z M 3.28125 -4.59375 "/></g></g></g></g></g></svg>